<?xml version="1.0" encoding="UTF-8" standalone="no"?>
<svg
   xmlns:dc="http://purl.org/dc/elements/1.1/"
   xmlns:cc="http://creativecommons.org/ns#"
   xmlns:rdf="http://www.w3.org/1999/02/22-rdf-syntax-ns#"
   xmlns:svg="http://www.w3.org/2000/svg"
   xmlns="http://www.w3.org/2000/svg"
   xmlns:sodipodi="http://sodipodi.sourceforge.net/DTD/sodipodi-0.dtd"
   xmlns:inkscape="http://www.inkscape.org/namespaces/inkscape"
   sodipodi:docname="artistique.svg"
   inkscape:version="1.0 (4035a4fb49, 2020-05-01)"
   id="svg1319"
   version="1.1"
   viewBox="0 0 16.502907 18.891472"
   height="18.891472mm"
   width="16.502907mm">
  <defs
     id="defs1313">
    <filter
       height="1.2257916"
       y="-0.11289582"
       width="1.267204"
       x="-0.13360204"
       id="filter1177-7-9-1-2-6-6"
       style="color-interpolation-filters:sRGB"
       inkscape:collect="always">
      <feGaussianBlur
         id="feGaussianBlur1179-1-0-1-4-8-9"
         stdDeviation="1.7898929"
         inkscape:collect="always" />
    </filter>
  </defs>
  <sodipodi:namedview
     inkscape:window-maximized="1"
     inkscape:window-y="-9"
     inkscape:window-x="-9"
     inkscape:window-height="1001"
     inkscape:window-width="1920"
     showgrid="false"
     inkscape:document-rotation="0"
     inkscape:current-layer="layer1"
     inkscape:document-units="mm"
     inkscape:cy="69.116478"
     inkscape:cx="58.008613"
     inkscape:zoom="1.979899"
     inkscape:pageshadow="2"
     inkscape:pageopacity="0.0"
     borderopacity="1.0"
     bordercolor="#666666"
     pagecolor="#ffffff"
     id="base" />
  <metadata
     id="metadata1316">
    <rdf:RDF>
      <cc:Work
         rdf:about="">
        <dc:format>image/svg+xml</dc:format>
        <dc:type
           rdf:resource="http://purl.org/dc/dcmitype/StillImage" />
        <dc:title></dc:title>
      </cc:Work>
    </rdf:RDF>
  </metadata>
  <g
     transform="translate(-4.445982,0.77663598)"
     id="layer1"
     inkscape:groupmode="layer"
     inkscape:label="Calque 1">
    <g
       transform="translate(-82.624571,-56.488479)"
       inkscape:export-ydpi="769"
       inkscape:export-xdpi="769"
       inkscape:export-filename="C:\Users\sarah.lachise\Documents\ENT-Mini-badges\badges\artistique.png"
       id="g1580">
      <g
         id="g1189-2-1-8-7-2-7"
         transform="matrix(0.30833388,0,0,0.30833388,83.90669,39.338696)">
        <path
           transform="matrix(1.3136131,0,0,1.3136131,-12.149562,-26.489447)"
           id="path836-3-5-5-5-7-2-8"
           style="opacity:0.762238;fill:#fc427b;fill-opacity:1;stroke:none;stroke-width:2.86889;stroke-linecap:round;stroke-linejoin:round;stroke-miterlimit:4;stroke-dasharray:none;stroke-opacity:1;paint-order:markers stroke fill;filter:url(#filter1177-7-9-1-2-6-6)"
           d="m 21.73783,93.476309 c -0.410153,-0.73121 -0.353185,-2.29574 -0.353185,-2.29574 l 1e-6,-14.83378 c 0,0 -0.143185,-1.297988 0.211912,-1.931042 0.355096,-0.633054 1.61553,-1.398969 1.61553,-1.398969 l 11.501903,-7.026754 c 0,0 1.824312,-1.10456 2.803655,-1.10456 0.979344,0 2.210729,0.828634 2.210729,0.828634 l 11.116555,6.791336 c 0,0 1.717643,1.245154 2.169994,2.051589 0.452352,0.806433 0.494458,2.001678 0.494458,2.001678 v 14.127408 c 0,0 -0.104602,2.11052 -0.565098,2.93147 -0.460488,0.82095 -1.632244,1.48368 -1.632244,1.48368 L 39.843877,102.1074 c 0,0 -1.5673,0.82857 -2.538139,0.82857 -0.970838,0 -2.432688,-0.93676 -2.432688,-0.93676 L 23.477099,95.037179 c 0,0 -1.329114,-0.82966 -1.739269,-1.56087 z"
           sodipodi:nodetypes="zcczcczcczcczcczccz" />
        <path
           sodipodi:nodetypes="zcczcczcczcczcczccz"
           d="M 83.210636,97.798151 C 82.664276,96.87764 82.740163,94.90807 82.740163,94.90807 l 10e-7,-18.674061 c 0,0 -0.190735,-1.634021 0.282284,-2.430965 0.473019,-0.796944 2.152026,-1.761145 2.152026,-1.761145 L 100.496,63.196009 c 0,0 2.43014,-1.390517 3.73471,-1.390517 1.30457,0 2.94488,1.043156 2.94488,1.043156 l 14.80821,8.549526 c 0,0 2.28805,1.56751 2.89062,2.58272 0.60257,1.015209 0.65866,2.519888 0.65866,2.519888 v 17.78482 c 0,0 -0.13934,2.656913 -0.75276,3.690398 -0.61341,1.033484 -2.17429,1.867779 -2.17429,1.867779 l -15.27658,8.819941 c 0,0 -2.08778,1.04306 -3.38102,1.04306 -1.29324,0 -3.24055,-1.17926 -3.24055,-1.17926 L 85.527491,99.763112 c 0,0 -1.770494,-1.044451 -2.316855,-1.964961 z"
           style="opacity:1;fill:#ffffff;fill-opacity:1;stroke:#fc427b;stroke-width:3.71514;stroke-linecap:round;stroke-linejoin:round;stroke-miterlimit:4;stroke-dasharray:none;stroke-opacity:1;paint-order:markers stroke fill"
           id="path836-6-4-2-0-7-3"
           transform="matrix(1.0042447,0,0,1.0626371,-67.400507,-7.1147412)" />
        <rect
           ry="0.68875718"
           y="56.867596"
           x="48.116322"
           height="4.9449406"
           width="4.9449406"
           id="rect852-37-3-6-2-3-4"
           style="opacity:1;fill:#fc427b;fill-opacity:1;stroke:none;stroke-width:2.03634;stroke-linecap:round;stroke-linejoin:round;stroke-miterlimit:4;stroke-dasharray:none;stroke-opacity:1;paint-order:markers stroke fill" />
        <rect
           transform="rotate(-31.82884)"
           style="opacity:1;fill:#fc427b;fill-opacity:1;stroke:none;stroke-width:2.03634;stroke-linecap:round;stroke-linejoin:round;stroke-miterlimit:4;stroke-dasharray:none;stroke-opacity:1;paint-order:markers stroke fill"
           id="rect852-3-5-6-5-5-6-7"
           width="4.9449406"
           height="4.9449406"
           x="-43.748703"
           y="95.883179"
           ry="0.68875718" />
        <rect
           style="opacity:1;fill:#fc427b;fill-opacity:1;stroke:none;stroke-width:2.03634;stroke-linecap:round;stroke-linejoin:round;stroke-miterlimit:4;stroke-dasharray:none;stroke-opacity:1;paint-order:markers stroke fill"
           id="rect852-8-1-93-3-3-6-3"
           width="4.9449406"
           height="4.9449406"
           x="52.453087"
           y="99.905167"
           ry="0.68875718" />
        <rect
           style="opacity:1;fill:#feb6cc;fill-opacity:1;stroke:none;stroke-width:1.20024;stroke-linecap:round;stroke-linejoin:round;stroke-miterlimit:4;stroke-dasharray:none;stroke-opacity:1;paint-order:markers stroke fill"
           id="rect852-0-82-9-0-6-5-3"
           width="2.914613"
           height="2.914613"
           x="55.406414"
           y="106.56666"
           ry="0.4059625" />
        <rect
           transform="rotate(-33.228631)"
           ry="0.33510357"
           y="94.791306"
           x="-37.568775"
           height="2.4058802"
           width="2.4058802"
           id="rect852-0-8-6-0-0-5-4-4"
           style="opacity:1;fill:#feb6cc;fill-opacity:1;stroke:none;stroke-width:0.990746;stroke-linecap:round;stroke-linejoin:round;stroke-miterlimit:4;stroke-dasharray:none;stroke-opacity:1;paint-order:markers stroke fill" />
        <rect
           style="opacity:1;fill:#feb6cc;fill-opacity:1;stroke:none;stroke-width:0.990746;stroke-linecap:round;stroke-linejoin:round;stroke-miterlimit:4;stroke-dasharray:none;stroke-opacity:1;paint-order:markers stroke fill"
           id="rect852-0-8-2-6-4-8-3-4-3"
           width="2.40588"
           height="2.40588"
           x="43.951065"
           y="58.204025"
           ry="0.33510357"
           transform="rotate(0.17408779)" />
      </g>
      <path
         style="fill:#fc427b;fill-opacity:1;stroke-width:0.332829"
         d="m 97.127804,65.24814 a 0.49924355,0.49924355 0 0 1 -0.49925,-0.499244 0.49924355,0.49924355 0 0 1 0.49925,-0.499243 0.49924355,0.49924355 0 0 1 0.49924,0.499243 0.49924355,0.49924355 0 0 1 -0.49924,0.499244 m -0.99848,-1.331316 a 0.49924355,0.49924355 0 0 1 -0.49925,-0.499244 0.49924355,0.49924355 0 0 1 0.49925,-0.499243 0.49924355,0.49924355 0 0 1 0.49923,0.499243 0.49924355,0.49924355 0 0 1 -0.49923,0.499244 m -1.66415,0 a 0.49924355,0.49924355 0 0 1 -0.49924,-0.499244 0.49924355,0.49924355 0 0 1 0.49924,-0.499243 0.49924355,0.49924355 0 0 1 0.49925,0.499243 0.49924355,0.49924355 0 0 1 -0.49925,0.499244 m -0.99849,1.331316 a 0.49924355,0.49924355 0 0 1 -0.49924,-0.499244 0.49924355,0.49924355 0 0 1 0.49924,-0.499243 0.49924355,0.49924355 0 0 1 0.49925,0.499243 0.49924355,0.49924355 0 0 1 -0.49925,0.499244 m 1.83056,-2.995462 a 2.9954613,2.9954613 0 0 0 -2.99546,2.995462 2.9954613,2.9954613 0 0 0 2.99546,2.995461 0.49924355,0.49924355 0 0 0 0.49925,-0.499244 c 0,-0.129802 -0.0499,-0.246292 -0.12981,-0.332828 -0.0766,-0.08987 -0.12647,-0.206355 -0.12647,-0.332829 a 0.49924355,0.49924355 0 0 1 0.49924,-0.499243 h 0.5891 a 1.6641452,1.6641452 0 0 0 1.66415,-1.664146 c 0,-1.471104 -1.3413,-2.662633 -2.99546,-2.662633 z"
         id="path2052" />
    </g>
  </g>
</svg>
