<?xml version="1.0" encoding="UTF-8" standalone="no"?>
<svg
   xmlns:dc="http://purl.org/dc/elements/1.1/"
   xmlns:cc="http://creativecommons.org/ns#"
   xmlns:rdf="http://www.w3.org/1999/02/22-rdf-syntax-ns#"
   xmlns:svg="http://www.w3.org/2000/svg"
   xmlns="http://www.w3.org/2000/svg"
   xmlns:sodipodi="http://sodipodi.sourceforge.net/DTD/sodipodi-0.dtd"
   xmlns:inkscape="http://www.inkscape.org/namespaces/inkscape"
   sodipodi:docname="bien-etre-animal.svg"
   inkscape:version="1.0 (4035a4fb49, 2020-05-01)"
   id="svg1319"
   version="1.1"
   viewBox="0 0 16.502907 18.891472"
   height="18.891472mm"
   width="16.502907mm">
  <defs
     id="defs1313">
    <filter
       height="1.2257916"
       y="-0.11289582"
       width="1.267204"
       x="-0.13360204"
       id="filter1177-7-5-0-7"
       style="color-interpolation-filters:sRGB"
       inkscape:collect="always">
      <feGaussianBlur
         id="feGaussianBlur1179-1-5-9-0"
         stdDeviation="1.7898929"
         inkscape:collect="always" />
    </filter>
  </defs>
  <sodipodi:namedview
     inkscape:window-maximized="1"
     inkscape:window-y="-9"
     inkscape:window-x="-9"
     inkscape:window-height="1001"
     inkscape:window-width="1920"
     showgrid="false"
     inkscape:document-rotation="0"
     inkscape:current-layer="layer1"
     inkscape:document-units="mm"
     inkscape:cy="57.239389"
     inkscape:cx="61.943445"
     inkscape:zoom="1.979899"
     inkscape:pageshadow="2"
     inkscape:pageopacity="0.0"
     borderopacity="1.0"
     bordercolor="#666666"
     pagecolor="#ffffff"
     id="base" />
  <metadata
     id="metadata1316">
    <rdf:RDF>
      <cc:Work
         rdf:about="">
        <dc:format>image/svg+xml</dc:format>
        <dc:type
           rdf:resource="http://purl.org/dc/dcmitype/StillImage" />
        <dc:title></dc:title>
      </cc:Work>
    </rdf:RDF>
  </metadata>
  <g
     transform="translate(-3.4048906,-2.365844)"
     id="layer1"
     inkscape:groupmode="layer"
     inkscape:label="Calque 1">
    <g
       transform="translate(-1.2259356,-28.718895)"
       inkscape:export-ydpi="769.06665"
       inkscape:export-xdpi="769.06665"
       inkscape:export-filename="C:\Users\sarah.lachise\Documents\ENT-Mini-badges\badges\bien-etre-animal.png"
       id="g1424">
      <g
         id="g1189-2-6-4-0"
         transform="matrix(0.30833388,0,0,0.30833388,1.4669632,14.711592)">
        <path
           transform="matrix(1.3136131,0,0,1.3136131,-12.149562,-26.489447)"
           id="path836-3-5-4-3-2"
           style="opacity:0.762238;fill:#3b3b98;fill-opacity:1;stroke:none;stroke-width:2.86889;stroke-linecap:round;stroke-linejoin:round;stroke-miterlimit:4;stroke-dasharray:none;stroke-opacity:1;paint-order:markers stroke fill;filter:url(#filter1177-7-5-0-7)"
           d="m 21.73783,93.476309 c -0.410153,-0.73121 -0.353185,-2.29574 -0.353185,-2.29574 l 1e-6,-14.83378 c 0,0 -0.143185,-1.297988 0.211912,-1.931042 0.355096,-0.633054 1.61553,-1.398969 1.61553,-1.398969 l 11.501903,-7.026754 c 0,0 1.824312,-1.10456 2.803655,-1.10456 0.979344,0 2.210729,0.828634 2.210729,0.828634 l 11.116555,6.791336 c 0,0 1.717643,1.245154 2.169994,2.051589 0.452352,0.806433 0.494458,2.001678 0.494458,2.001678 v 14.127408 c 0,0 -0.104602,2.11052 -0.565098,2.93147 -0.460488,0.82095 -1.632244,1.48368 -1.632244,1.48368 L 39.843877,102.1074 c 0,0 -1.5673,0.82857 -2.538139,0.82857 -0.970838,0 -2.432688,-0.93676 -2.432688,-0.93676 L 23.477099,95.037179 c 0,0 -1.329114,-0.82966 -1.739269,-1.56087 z"
           sodipodi:nodetypes="zcczcczcczcczcczccz" />
        <path
           sodipodi:nodetypes="zcczcczcczcczcczccz"
           d="M 83.210636,97.798151 C 82.664276,96.87764 82.740163,94.90807 82.740163,94.90807 l 10e-7,-18.674061 c 0,0 -0.190735,-1.634021 0.282284,-2.430965 0.473019,-0.796944 2.152026,-1.761145 2.152026,-1.761145 L 100.496,63.196009 c 0,0 2.43014,-1.390517 3.73471,-1.390517 1.30457,0 2.94488,1.043156 2.94488,1.043156 l 14.80821,8.549526 c 0,0 2.28805,1.56751 2.89062,2.58272 0.60257,1.015209 0.65866,2.519888 0.65866,2.519888 v 17.78482 c 0,0 -0.13934,2.656913 -0.75276,3.690398 -0.61341,1.033484 -2.17429,1.867779 -2.17429,1.867779 l -15.27658,8.819941 c 0,0 -2.08778,1.04306 -3.38102,1.04306 -1.29324,0 -3.24055,-1.17926 -3.24055,-1.17926 L 85.527491,99.763112 c 0,0 -1.770494,-1.044451 -2.316855,-1.964961 z"
           style="opacity:1;fill:#ffffff;fill-opacity:1;stroke:#3b3b98;stroke-width:3.71514;stroke-linecap:round;stroke-linejoin:round;stroke-miterlimit:4;stroke-dasharray:none;stroke-opacity:1;paint-order:markers stroke fill"
           id="path836-6-3-8-2"
           transform="matrix(1.0042447,0,0,1.0626371,-67.400507,-7.1147412)" />
        <rect
           ry="0.68875718"
           y="56.867596"
           x="48.116322"
           height="4.9449406"
           width="4.9449406"
           id="rect852-37-8-9-0"
           style="opacity:1;fill:#3b3b98;fill-opacity:1;stroke:none;stroke-width:2.03634;stroke-linecap:round;stroke-linejoin:round;stroke-miterlimit:4;stroke-dasharray:none;stroke-opacity:1;paint-order:markers stroke fill" />
        <rect
           transform="rotate(-31.82884)"
           style="opacity:1;fill:#3b3b98;fill-opacity:1;stroke:none;stroke-width:2.03634;stroke-linecap:round;stroke-linejoin:round;stroke-miterlimit:4;stroke-dasharray:none;stroke-opacity:1;paint-order:markers stroke fill"
           id="rect852-3-5-8-8-3"
           width="4.9449406"
           height="4.9449406"
           x="-43.748703"
           y="95.883179"
           ry="0.68875718" />
        <rect
           style="opacity:1;fill:#b4b4e2;fill-opacity:0.988235;stroke:none;stroke-width:2.03634;stroke-linecap:round;stroke-linejoin:round;stroke-miterlimit:4;stroke-dasharray:none;stroke-opacity:1;paint-order:markers stroke fill"
           id="rect852-8-1-9-4-2"
           width="4.9449406"
           height="4.9449406"
           x="52.453087"
           y="99.905167"
           ry="0.68875718" />
        <rect
           style="opacity:1;fill:#3b3b98;fill-opacity:1;stroke:none;stroke-width:1.20024;stroke-linecap:round;stroke-linejoin:round;stroke-miterlimit:4;stroke-dasharray:none;stroke-opacity:1;paint-order:markers stroke fill"
           id="rect852-0-82-1-2-5"
           width="2.914613"
           height="2.914613"
           x="55.406414"
           y="106.56666"
           ry="0.4059625" />
        <rect
           transform="rotate(-33.228631)"
           ry="0.33510357"
           y="94.791306"
           x="-37.568775"
           height="2.4058802"
           width="2.4058802"
           id="rect852-0-8-6-9-1-2"
           style="opacity:1;fill:#b4b4e2;fill-opacity:0.988235;stroke:none;stroke-width:0.990746;stroke-linecap:round;stroke-linejoin:round;stroke-miterlimit:4;stroke-dasharray:none;stroke-opacity:1;paint-order:markers stroke fill" />
        <rect
           style="opacity:1;fill:#b4b4e2;fill-opacity:0.988235;stroke:none;stroke-width:0.990746;stroke-linecap:round;stroke-linejoin:round;stroke-miterlimit:4;stroke-dasharray:none;stroke-opacity:1;paint-order:markers stroke fill"
           id="rect852-0-8-2-6-2-5-2"
           width="2.40588"
           height="2.40588"
           x="43.951065"
           y="58.204025"
           ry="0.33510357"
           transform="rotate(0.17408779)" />
      </g>
      <path
         style="fill:#3b3b98;fill-opacity:1;stroke-width:0.335444"
         d="m 15.652753,38.908437 c 0,0 0,-1.341776 -1.677221,-1.341776 -0.513228,0 -0.956015,0.06373 -1.341776,0.167722 -0.167722,-0.147596 -1.254561,-1.070402 -2.348108,0.02348 l 0.858737,0.858738 c -1.361903,1.475953 -0.858737,3.981721 -0.858737,3.981721 0,0 -1.006332,0 -1.006332,1.341776 0,0 1.341776,-0.335444 1.341776,-0.335444 0,0 1.341776,0.335444 1.341776,0.335444 0,-1.341776 -1.006332,-1.341776 -1.006332,-1.341776 0,0 0.285127,-1.932158 2.348109,-2.287728 v 0.945952 c 0.670887,0 0.89899,-0.607154 0.969432,-1.006332 h 0.707788 c 1.341777,0 1.67722,-0.335445 1.67722,-0.670889 0,-0.335443 -0.670888,-0.670888 -1.006332,-0.670888 m -0.670888,0.335445 c -0.184495,0 -0.335444,-0.150951 -0.335444,-0.335445 0,-0.184495 0.150949,-0.335444 0.335444,-0.335444 0.184494,0 0.335444,0.150949 0.335444,0.335444 0,0.184494 -0.15095,0.335445 -0.335444,0.335445 z"
         id="path1909" />
    </g>
  </g>
</svg>
