<?xml version="1.0" encoding="UTF-8" standalone="no"?>
<svg
   xmlns:dc="http://purl.org/dc/elements/1.1/"
   xmlns:cc="http://creativecommons.org/ns#"
   xmlns:rdf="http://www.w3.org/1999/02/22-rdf-syntax-ns#"
   xmlns:svg="http://www.w3.org/2000/svg"
   xmlns="http://www.w3.org/2000/svg"
   xmlns:sodipodi="http://sodipodi.sourceforge.net/DTD/sodipodi-0.dtd"
   xmlns:inkscape="http://www.inkscape.org/namespaces/inkscape"
   sodipodi:docname="ecologie.svg"
   inkscape:version="1.0 (4035a4fb49, 2020-05-01)"
   id="svg1319"
   version="1.1"
   viewBox="0 0 16.502907 18.891472"
   height="18.891472mm"
   width="16.502907mm">
  <defs
     id="defs1313">
    <filter
       inkscape:collect="always"
       style="color-interpolation-filters:sRGB"
       id="filter1177-7-9-2"
       x="-0.13360204"
       width="1.267204"
       y="-0.11289582"
       height="1.2257916">
      <feGaussianBlur
         inkscape:collect="always"
         stdDeviation="1.7898929"
         id="feGaussianBlur1179-1-0-15" />
    </filter>
  </defs>
  <sodipodi:namedview
     inkscape:window-maximized="1"
     inkscape:window-y="-9"
     inkscape:window-x="-9"
     inkscape:window-height="1001"
     inkscape:window-width="1920"
     showgrid="false"
     inkscape:document-rotation="0"
     inkscape:current-layer="layer1"
     inkscape:document-units="mm"
     inkscape:cy="45.647717"
     inkscape:cx="58.528591"
     inkscape:zoom="1.979899"
     inkscape:pageshadow="2"
     inkscape:pageopacity="0.0"
     borderopacity="1.0"
     bordercolor="#666666"
     pagecolor="#ffffff"
     id="base" />
  <metadata
     id="metadata1316">
    <rdf:RDF>
      <cc:Work
         rdf:about="">
        <dc:format>image/svg+xml</dc:format>
        <dc:type
           rdf:resource="http://purl.org/dc/dcmitype/StillImage" />
        <dc:title></dc:title>
      </cc:Work>
    </rdf:RDF>
  </metadata>
  <g
     transform="translate(-4.308404,-5.432807)"
     id="layer1"
     inkscape:groupmode="layer"
     inkscape:label="Calque 1">
    <g
       transform="translate(-61.616126,-25.709252)"
       inkscape:export-ydpi="769.06665"
       inkscape:export-xdpi="769.06665"
       inkscape:export-filename="C:\Users\sarah.lachise\Documents\ENT-Mini-badges\badges\ecologie.png"
       id="g1460">
      <g
         transform="matrix(0.30833388,0,0,0.30833388,62.760667,14.768912)"
         id="g1189-2-1-3">
        <path
           sodipodi:nodetypes="zcczcczcczcczcczccz"
           d="m 21.73783,93.476309 c -0.410153,-0.73121 -0.353185,-2.29574 -0.353185,-2.29574 l 1e-6,-14.83378 c 0,0 -0.143185,-1.297988 0.211912,-1.931042 0.355096,-0.633054 1.61553,-1.398969 1.61553,-1.398969 l 11.501903,-7.026754 c 0,0 1.824312,-1.10456 2.803655,-1.10456 0.979344,0 2.210729,0.828634 2.210729,0.828634 l 11.116555,6.791336 c 0,0 1.717643,1.245154 2.169994,2.051589 0.452352,0.806433 0.494458,2.001678 0.494458,2.001678 v 14.127408 c 0,0 -0.104602,2.11052 -0.565098,2.93147 -0.460488,0.82095 -1.632244,1.48368 -1.632244,1.48368 L 39.843877,102.1074 c 0,0 -1.5673,0.82857 -2.538139,0.82857 -0.970838,0 -2.432688,-0.93676 -2.432688,-0.93676 L 23.477099,95.037179 c 0,0 -1.329114,-0.82966 -1.739269,-1.56087 z"
           style="opacity:0.762238;fill:#55e6c1;fill-opacity:1;stroke:none;stroke-width:2.86889;stroke-linecap:round;stroke-linejoin:round;stroke-miterlimit:4;stroke-dasharray:none;stroke-opacity:1;paint-order:markers stroke fill;filter:url(#filter1177-7-9-2)"
           id="path836-3-5-5-3"
           transform="matrix(1.3136131,0,0,1.3136131,-12.149562,-26.489447)" />
        <path
           transform="matrix(1.0042447,0,0,1.0626371,-67.400507,-7.1147412)"
           id="path836-6-4-92"
           style="opacity:1;fill:#ffffff;fill-opacity:1;stroke:#55e6c1;stroke-width:3.71514;stroke-linecap:round;stroke-linejoin:round;stroke-miterlimit:4;stroke-dasharray:none;stroke-opacity:1;paint-order:markers stroke fill"
           d="M 83.210636,97.798151 C 82.664276,96.87764 82.740163,94.90807 82.740163,94.90807 l 10e-7,-18.674061 c 0,0 -0.190735,-1.634021 0.282284,-2.430965 0.473019,-0.796944 2.152026,-1.761145 2.152026,-1.761145 L 100.496,63.196009 c 0,0 2.43014,-1.390517 3.73471,-1.390517 1.30457,0 2.94488,1.043156 2.94488,1.043156 l 14.80821,8.549526 c 0,0 2.28805,1.56751 2.89062,2.58272 0.60257,1.015209 0.65866,2.519888 0.65866,2.519888 v 17.78482 c 0,0 -0.13934,2.656913 -0.75276,3.690398 -0.61341,1.033484 -2.17429,1.867779 -2.17429,1.867779 l -15.27658,8.819941 c 0,0 -2.08778,1.04306 -3.38102,1.04306 -1.29324,0 -3.24055,-1.17926 -3.24055,-1.17926 L 85.527491,99.763112 c 0,0 -1.770494,-1.044451 -2.316855,-1.964961 z"
           sodipodi:nodetypes="zcczcczcczcczcczccz" />
        <rect
           style="opacity:1;fill:#55e6c1;fill-opacity:1;stroke:none;stroke-width:2.03634;stroke-linecap:round;stroke-linejoin:round;stroke-miterlimit:4;stroke-dasharray:none;stroke-opacity:1;paint-order:markers stroke fill"
           id="rect852-37-3-75"
           width="4.9449406"
           height="4.9449406"
           x="48.116322"
           y="56.867596"
           ry="0.68875718" />
        <rect
           ry="0.68875718"
           y="95.883179"
           x="-43.748703"
           height="4.9449406"
           width="4.9449406"
           id="rect852-3-5-6-4"
           style="opacity:1;fill:#55e6c1;fill-opacity:1;stroke:none;stroke-width:2.03634;stroke-linecap:round;stroke-linejoin:round;stroke-miterlimit:4;stroke-dasharray:none;stroke-opacity:1;paint-order:markers stroke fill"
           transform="rotate(-31.82884)" />
        <rect
           ry="0.68875718"
           y="99.905167"
           x="52.453087"
           height="4.9449406"
           width="4.9449406"
           id="rect852-8-1-93-4"
           style="opacity:1;fill:#c6f7ea;fill-opacity:0.988235;stroke:none;stroke-width:2.03634;stroke-linecap:round;stroke-linejoin:round;stroke-miterlimit:4;stroke-dasharray:none;stroke-opacity:1;paint-order:markers stroke fill" />
        <rect
           ry="0.4059625"
           y="106.56666"
           x="55.406414"
           height="2.914613"
           width="2.914613"
           id="rect852-0-82-9-5"
           style="opacity:1;fill:#55e6c1;fill-opacity:1;stroke:none;stroke-width:1.20024;stroke-linecap:round;stroke-linejoin:round;stroke-miterlimit:4;stroke-dasharray:none;stroke-opacity:1;paint-order:markers stroke fill" />
        <rect
           style="opacity:1;fill:#c6f7ea;fill-opacity:0.988235;stroke:none;stroke-width:0.990746;stroke-linecap:round;stroke-linejoin:round;stroke-miterlimit:4;stroke-dasharray:none;stroke-opacity:1;paint-order:markers stroke fill"
           id="rect852-0-8-6-0-2"
           width="2.4058802"
           height="2.4058802"
           x="-37.568775"
           y="94.791306"
           ry="0.33510357"
           transform="rotate(-33.228631)" />
        <rect
           transform="rotate(0.17408779)"
           ry="0.33510357"
           y="58.204025"
           x="43.951065"
           height="2.40588"
           width="2.40588"
           id="rect852-0-8-2-6-4-0"
           style="opacity:1;fill:#c6f7ea;fill-opacity:0.988235;stroke:none;stroke-width:0.990746;stroke-linecap:round;stroke-linejoin:round;stroke-miterlimit:4;stroke-dasharray:none;stroke-opacity:1;paint-order:markers stroke fill" />
      </g>
      <path
         style="fill:#55e6c1;fill-opacity:1;stroke-width:0.377976"
         d="m 70.757143,40.915923 a 3.4017857,3.4017857 0 0 0 3.401786,3.401786 3.4017857,3.4017857 0 0 0 -3.401786,-3.401786 m 3.401786,3.401786 a 3.4017857,3.4017857 0 0 0 3.401785,-3.401786 3.4017857,3.4017857 0 0 0 -3.401785,3.401786 m 2.267857,-7.181547 v 1.88988 a 2.2678571,2.2678571 0 0 1 -2.267857,2.267857 2.2678571,2.2678571 0 0 1 -2.267857,-2.267857 v -1.88988 c 0.279701,0 0.555624,0.04536 0.816428,0.14741 0.207886,0.08693 0.393094,0.215447 0.548064,0.377976 l 0.903365,-0.903363 0.903362,0.903363 c 0.15497,-0.162529 0.340179,-0.291042 0.548066,-0.377976 0.260803,-0.102057 0.536726,-0.14741 0.816429,-0.14741 z"
         id="path1942" />
    </g>
  </g>
</svg>
