<?xml version="1.0" encoding="UTF-8" standalone="no"?>
<svg
   xmlns:dc="http://purl.org/dc/elements/1.1/"
   xmlns:cc="http://creativecommons.org/ns#"
   xmlns:rdf="http://www.w3.org/1999/02/22-rdf-syntax-ns#"
   xmlns:svg="http://www.w3.org/2000/svg"
   xmlns="http://www.w3.org/2000/svg"
   xmlns:sodipodi="http://sodipodi.sourceforge.net/DTD/sodipodi-0.dtd"
   xmlns:inkscape="http://www.inkscape.org/namespaces/inkscape"
   sodipodi:docname="motivation.svg"
   inkscape:version="1.0 (4035a4fb49, 2020-05-01)"
   id="svg1319"
   version="1.1"
   viewBox="0 0 16.502907 18.891472"
   height="18.891472mm"
   width="16.502907mm">
  <defs
     id="defs1313">
    <filter
       height="1.2257916"
       y="-0.11289582"
       width="1.267204"
       x="-0.13360204"
       id="filter1177-7-5-0-7-6-5"
       style="color-interpolation-filters:sRGB"
       inkscape:collect="always">
      <feGaussianBlur
         id="feGaussianBlur1179-1-5-9-0-2-7"
         stdDeviation="1.7898929"
         inkscape:collect="always" />
    </filter>
  </defs>
  <sodipodi:namedview
     inkscape:window-maximized="1"
     inkscape:window-y="-9"
     inkscape:window-x="-9"
     inkscape:window-height="1001"
     inkscape:window-width="1920"
     showgrid="false"
     inkscape:document-rotation="0"
     inkscape:current-layer="layer1"
     inkscape:document-units="mm"
     inkscape:cy="73.527254"
     inkscape:cx="68.607735"
     inkscape:zoom="1.979899"
     inkscape:pageshadow="2"
     inkscape:pageopacity="0.0"
     borderopacity="1.0"
     bordercolor="#666666"
     pagecolor="#ffffff"
     id="base" />
  <metadata
     id="metadata1316">
    <rdf:RDF>
      <cc:Work
         rdf:about="">
        <dc:format>image/svg+xml</dc:format>
        <dc:type
           rdf:resource="http://purl.org/dc/dcmitype/StillImage" />
        <dc:title></dc:title>
      </cc:Work>
    </rdf:RDF>
  </metadata>
  <g
     transform="translate(-1.6416311,1.943654)"
     id="layer1"
     inkscape:groupmode="layer"
     inkscape:label="Calque 1">
    <g
       transform="translate(-2.9223172,-83.734027)"
       inkscape:export-ydpi="769"
       inkscape:export-xdpi="769"
       inkscape:export-filename="C:\Users\sarah.lachise\Documents\ENT-Mini-badges\badges\motivation.png"
       id="g1640">
      <g
         id="g1189-2-6-4-0-8-9"
         transform="matrix(0.30833388,0,0,0.30833388,1.4000853,65.417226)">
        <path
           transform="matrix(1.3136131,0,0,1.3136131,-12.149562,-26.489447)"
           id="path836-3-5-4-3-2-9-7"
           style="opacity:0.762238;fill:#ff5252;fill-opacity:1;stroke:none;stroke-width:2.86889;stroke-linecap:round;stroke-linejoin:round;stroke-miterlimit:4;stroke-dasharray:none;stroke-opacity:1;paint-order:markers stroke fill;filter:url(#filter1177-7-5-0-7-6-5)"
           d="m 21.73783,93.476309 c -0.410153,-0.73121 -0.353185,-2.29574 -0.353185,-2.29574 l 1e-6,-14.83378 c 0,0 -0.143185,-1.297988 0.211912,-1.931042 0.355096,-0.633054 1.61553,-1.398969 1.61553,-1.398969 l 11.501903,-7.026754 c 0,0 1.824312,-1.10456 2.803655,-1.10456 0.979344,0 2.210729,0.828634 2.210729,0.828634 l 11.116555,6.791336 c 0,0 1.717643,1.245154 2.169994,2.051589 0.452352,0.806433 0.494458,2.001678 0.494458,2.001678 v 14.127408 c 0,0 -0.104602,2.11052 -0.565098,2.93147 -0.460488,0.82095 -1.632244,1.48368 -1.632244,1.48368 L 39.843877,102.1074 c 0,0 -1.5673,0.82857 -2.538139,0.82857 -0.970838,0 -2.432688,-0.93676 -2.432688,-0.93676 L 23.477099,95.037179 c 0,0 -1.329114,-0.82966 -1.739269,-1.56087 z"
           sodipodi:nodetypes="zcczcczcczcczcczccz" />
        <path
           sodipodi:nodetypes="zcczcczcczcczcczccz"
           d="M 83.210636,97.798151 C 82.664276,96.87764 82.740163,94.90807 82.740163,94.90807 l 10e-7,-18.674061 c 0,0 -0.190735,-1.634021 0.282284,-2.430965 0.473019,-0.796944 2.152026,-1.761145 2.152026,-1.761145 L 100.496,63.196009 c 0,0 2.43014,-1.390517 3.73471,-1.390517 1.30457,0 2.94488,1.043156 2.94488,1.043156 l 14.80821,8.549526 c 0,0 2.28805,1.56751 2.89062,2.58272 0.60257,1.015209 0.65866,2.519888 0.65866,2.519888 v 17.78482 c 0,0 -0.13934,2.656913 -0.75276,3.690398 -0.61341,1.033484 -2.17429,1.867779 -2.17429,1.867779 l -15.27658,8.819941 c 0,0 -2.08778,1.04306 -3.38102,1.04306 -1.29324,0 -3.24055,-1.17926 -3.24055,-1.17926 L 85.527491,99.763112 c 0,0 -1.770494,-1.044451 -2.316855,-1.964961 z"
           style="opacity:1;fill:#ffffff;fill-opacity:1;stroke:#ff5252;stroke-width:3.71514;stroke-linecap:round;stroke-linejoin:round;stroke-miterlimit:4;stroke-dasharray:none;stroke-opacity:1;paint-order:markers stroke fill"
           id="path836-6-3-8-2-2-1"
           transform="matrix(1.0042447,0,0,1.0626371,-67.400507,-7.1147412)" />
        <rect
           ry="0.68875718"
           y="56.867596"
           x="48.116322"
           height="4.9449406"
           width="4.9449406"
           id="rect852-37-8-9-0-1-5"
           style="opacity:1;fill:#ff5252;fill-opacity:1;stroke:none;stroke-width:2.03634;stroke-linecap:round;stroke-linejoin:round;stroke-miterlimit:4;stroke-dasharray:none;stroke-opacity:1;paint-order:markers stroke fill" />
        <rect
           transform="rotate(-31.82884)"
           style="opacity:1;fill:#ff5252;fill-opacity:1;stroke:none;stroke-width:2.03634;stroke-linecap:round;stroke-linejoin:round;stroke-miterlimit:4;stroke-dasharray:none;stroke-opacity:1;paint-order:markers stroke fill"
           id="rect852-3-5-8-8-3-5-4"
           width="4.9449406"
           height="4.9449406"
           x="-43.748703"
           y="95.883179"
           ry="0.68875718" />
        <rect
           style="opacity:1;fill:#ffb5b5;fill-opacity:0.988235;stroke:none;stroke-width:2.03634;stroke-linecap:round;stroke-linejoin:round;stroke-miterlimit:4;stroke-dasharray:none;stroke-opacity:1;paint-order:markers stroke fill"
           id="rect852-8-1-9-4-2-2-8"
           width="4.9449406"
           height="4.9449406"
           x="52.453087"
           y="99.905167"
           ry="0.68875718" />
        <rect
           style="opacity:1;fill:#ff5252;fill-opacity:1;stroke:none;stroke-width:1.20024;stroke-linecap:round;stroke-linejoin:round;stroke-miterlimit:4;stroke-dasharray:none;stroke-opacity:1;paint-order:markers stroke fill"
           id="rect852-0-82-1-2-5-5-3"
           width="2.914613"
           height="2.914613"
           x="55.406414"
           y="106.56666"
           ry="0.4059625" />
        <rect
           transform="rotate(-33.228631)"
           ry="0.33510357"
           y="94.791306"
           x="-37.568775"
           height="2.4058802"
           width="2.4058802"
           id="rect852-0-8-6-9-1-2-2-0"
           style="opacity:1;fill:#ffb5b5;fill-opacity:0.988235;stroke:none;stroke-width:0.990746;stroke-linecap:round;stroke-linejoin:round;stroke-miterlimit:4;stroke-dasharray:none;stroke-opacity:1;paint-order:markers stroke fill" />
        <rect
           style="opacity:1;fill:#ffb5b5;fill-opacity:0.988235;stroke:none;stroke-width:0.990746;stroke-linecap:round;stroke-linejoin:round;stroke-miterlimit:4;stroke-dasharray:none;stroke-opacity:1;paint-order:markers stroke fill"
           id="rect852-0-8-2-6-2-5-2-2-7"
           width="2.40588"
           height="2.40588"
           x="43.951065"
           y="58.204025"
           ry="0.33510357"
           transform="rotate(0.17408779)" />
      </g>
      <path
         style="fill:#ff5252;fill-opacity:1;stroke-width:0.317536"
         d="m 13.346355,94.410587 -0.517584,-1.216162 c 0.498532,-0.184171 0.96531,-0.431849 1.39716,-0.720807 l -0.879576,1.936969 M 10.968008,91.333662 9.7518418,90.816078 11.688816,89.936502 c -0.288959,0.431849 -0.536637,0.898628 -0.720808,1.39716 m 5.071055,-3.210293 c 0,0 -1.571804,-0.673494 -3.369061,1.124079 -0.695404,0.695405 -1.111376,1.460668 -1.381282,2.130669 -0.08891,0.238152 -0.02858,0.498532 0.146066,0.676353 l 0.676353,0.673177 c 0.174644,0.17782 0.435025,0.234976 0.673176,0.146066 0.679529,-0.260379 1.435265,-0.685878 2.130669,-1.381283 1.797256,-1.797255 1.124079,-3.369061 1.124079,-3.369061 m -2.244982,2.244982 c -0.247678,-0.247678 -0.247678,-0.650949 0,-0.898627 0.247678,-0.247678 0.65095,-0.247678 0.898628,0 0.244503,0.247678 0.247679,0.650949 0,0.898627 -0.247678,0.247678 -0.65095,0.247678 -0.898628,0 m -1.797255,2.244983 -0.447727,-0.447727 0.447727,0.447727 m -0.838296,1.736923 1.155832,-1.155832 c -0.107964,-0.02858 -0.21275,-0.07621 -0.30801,-0.142891 l -1.295549,1.298723 h 0.447727 m -1.3463562,0 H 10.259902 L 11.77455,92.838785 11.323649,92.391058 9.8121738,93.90253 v 0.447727 m 0,-0.898627 1.2987252,-1.295548 c -0.06668,-0.09526 -0.114313,-0.196873 -0.142891,-0.308011 l -1.1558342,1.155832 z"
         id="path2388" />
    </g>
  </g>
</svg>
