<?xml version="1.0" encoding="UTF-8" standalone="no"?>
<svg
   xmlns:dc="http://purl.org/dc/elements/1.1/"
   xmlns:cc="http://creativecommons.org/ns#"
   xmlns:rdf="http://www.w3.org/1999/02/22-rdf-syntax-ns#"
   xmlns:svg="http://www.w3.org/2000/svg"
   xmlns="http://www.w3.org/2000/svg"
   xmlns:sodipodi="http://sodipodi.sourceforge.net/DTD/sodipodi-0.dtd"
   xmlns:inkscape="http://www.inkscape.org/namespaces/inkscape"
   sodipodi:docname="ouverture-esprit.svg"
   inkscape:version="1.0 (4035a4fb49, 2020-05-01)"
   id="svg1319"
   version="1.1"
   viewBox="0 0 16.502907 18.891472"
   height="18.891472mm"
   width="16.502907mm">
  <defs
     id="defs1313">
    <filter
       inkscape:collect="always"
       style="color-interpolation-filters:sRGB"
       id="filter1177-7-9-9-2-7"
       x="-0.13360204"
       width="1.267204"
       y="-0.11289582"
       height="1.2257916">
      <feGaussianBlur
         inkscape:collect="always"
         stdDeviation="1.7898929"
         id="feGaussianBlur1179-1-0-5-7-6" />
    </filter>
  </defs>
  <sodipodi:namedview
     inkscape:window-maximized="1"
     inkscape:window-y="-9"
     inkscape:window-x="-9"
     inkscape:window-height="1001"
     inkscape:window-width="1920"
     showgrid="false"
     inkscape:document-rotation="0"
     inkscape:current-layer="layer1"
     inkscape:document-units="mm"
     inkscape:cy="56.624482"
     inkscape:cx="67.107443"
     inkscape:zoom="1.979899"
     inkscape:pageshadow="2"
     inkscape:pageopacity="0.0"
     borderopacity="1.0"
     bordercolor="#666666"
     pagecolor="#ffffff"
     id="base" />
  <metadata
     id="metadata1316">
    <rdf:RDF>
      <cc:Work
         rdf:about="">
        <dc:format>image/svg+xml</dc:format>
        <dc:type
           rdf:resource="http://purl.org/dc/dcmitype/StillImage" />
        <dc:title></dc:title>
      </cc:Work>
    </rdf:RDF>
  </metadata>
  <g
     transform="translate(-2.038583,-2.528538)"
     id="layer1"
     inkscape:groupmode="layer"
     inkscape:label="Calque 1">
    <g
       transform="translate(-169.75703,-28.633091)"
       inkscape:export-ydpi="769.06665"
       inkscape:export-xdpi="769.06665"
       inkscape:export-filename="C:\Users\sarah.lachise\Documents\ENT-Mini-badges\badges\ouverture-esprit.png"
       id="g1520">
      <g
         transform="matrix(0.30833388,0,0,0.30833388,168.63175,14.788482)"
         id="g1189-2-1-2-3-0">
        <path
           sodipodi:nodetypes="zcczcczcczcczcczccz"
           d="m 21.73783,93.476309 c -0.410153,-0.73121 -0.353185,-2.29574 -0.353185,-2.29574 l 1e-6,-14.83378 c 0,0 -0.143185,-1.297988 0.211912,-1.931042 0.355096,-0.633054 1.61553,-1.398969 1.61553,-1.398969 l 11.501903,-7.026754 c 0,0 1.824312,-1.10456 2.803655,-1.10456 0.979344,0 2.210729,0.828634 2.210729,0.828634 l 11.116555,6.791336 c 0,0 1.717643,1.245154 2.169994,2.051589 0.452352,0.806433 0.494458,2.001678 0.494458,2.001678 v 14.127408 c 0,0 -0.104602,2.11052 -0.565098,2.93147 -0.460488,0.82095 -1.632244,1.48368 -1.632244,1.48368 L 39.843877,102.1074 c 0,0 -1.5673,0.82857 -2.538139,0.82857 -0.970838,0 -2.432688,-0.93676 -2.432688,-0.93676 L 23.477099,95.037179 c 0,0 -1.329114,-0.82966 -1.739269,-1.56087 z"
           style="opacity:0.762238;fill:#196f3d;fill-opacity:1;stroke:none;stroke-width:2.86889;stroke-linecap:round;stroke-linejoin:round;stroke-miterlimit:4;stroke-dasharray:none;stroke-opacity:1;paint-order:markers stroke fill;filter:url(#filter1177-7-9-9-2-7)"
           id="path836-3-5-5-4-3-8"
           transform="matrix(1.3136131,0,0,1.3136131,-12.149562,-26.489447)" />
        <path
           transform="matrix(1.0042447,0,0,1.0626371,-67.400507,-7.1147412)"
           id="path836-6-4-9-5-1"
           style="opacity:1;fill:#ffffff;fill-opacity:1;stroke:#196f3d;stroke-width:3.71514;stroke-linecap:round;stroke-linejoin:round;stroke-miterlimit:4;stroke-dasharray:none;stroke-opacity:1;paint-order:markers stroke fill"
           d="M 83.210636,97.798151 C 82.664276,96.87764 82.740163,94.90807 82.740163,94.90807 l 10e-7,-18.674061 c 0,0 -0.190735,-1.634021 0.282284,-2.430965 0.473019,-0.796944 2.152026,-1.761145 2.152026,-1.761145 L 100.496,63.196009 c 0,0 2.43014,-1.390517 3.73471,-1.390517 1.30457,0 2.94488,1.043156 2.94488,1.043156 l 14.80821,8.549526 c 0,0 2.28805,1.56751 2.89062,2.58272 0.60257,1.015209 0.65866,2.519888 0.65866,2.519888 v 17.78482 c 0,0 -0.13934,2.656913 -0.75276,3.690398 -0.61341,1.033484 -2.17429,1.867779 -2.17429,1.867779 l -15.27658,8.819941 c 0,0 -2.08778,1.04306 -3.38102,1.04306 -1.29324,0 -3.24055,-1.17926 -3.24055,-1.17926 L 85.527491,99.763112 c 0,0 -1.770494,-1.044451 -2.316855,-1.964961 z"
           sodipodi:nodetypes="zcczcczcczcczcczccz" />
        <rect
           style="opacity:1;fill:#196f3d;fill-opacity:1;stroke:none;stroke-width:2.03634;stroke-linecap:round;stroke-linejoin:round;stroke-miterlimit:4;stroke-dasharray:none;stroke-opacity:1;paint-order:markers stroke fill"
           id="rect852-37-3-7-8-0"
           width="4.9449406"
           height="4.9449406"
           x="48.116322"
           y="56.867596"
           ry="0.68875718" />
        <rect
           ry="0.68875718"
           y="95.883179"
           x="-43.748703"
           height="4.9449406"
           width="4.9449406"
           id="rect852-3-5-6-2-9-0"
           style="opacity:1;fill:#196f3d;fill-opacity:1;stroke:none;stroke-width:2.03634;stroke-linecap:round;stroke-linejoin:round;stroke-miterlimit:4;stroke-dasharray:none;stroke-opacity:1;paint-order:markers stroke fill"
           transform="rotate(-31.82884)" />
        <rect
           ry="0.68875718"
           y="99.905167"
           x="52.453087"
           height="4.9449406"
           width="4.9449406"
           id="rect852-8-1-93-9-7-3"
           style="opacity:1;fill:#a9dfbf;fill-opacity:0.988235;stroke:none;stroke-width:2.03634;stroke-linecap:round;stroke-linejoin:round;stroke-miterlimit:4;stroke-dasharray:none;stroke-opacity:1;paint-order:markers stroke fill" />
        <rect
           ry="0.4059625"
           y="106.56666"
           x="55.406414"
           height="2.914613"
           width="2.914613"
           id="rect852-0-82-9-3-5-4"
           style="opacity:1;fill:#196f3d;fill-opacity:1;stroke:none;stroke-width:1.20024;stroke-linecap:round;stroke-linejoin:round;stroke-miterlimit:4;stroke-dasharray:none;stroke-opacity:1;paint-order:markers stroke fill" />
        <rect
           style="opacity:1;fill:#a9dfbf;fill-opacity:0.988235;stroke:none;stroke-width:0.990746;stroke-linecap:round;stroke-linejoin:round;stroke-miterlimit:4;stroke-dasharray:none;stroke-opacity:1;paint-order:markers stroke fill"
           id="rect852-0-8-6-0-1-7-7"
           width="2.4058802"
           height="2.4058802"
           x="-37.568775"
           y="94.791306"
           ry="0.33510357"
           transform="rotate(-33.228631)" />
        <rect
           transform="rotate(0.17408779)"
           ry="0.33510357"
           y="58.204025"
           x="43.951065"
           height="2.40588"
           width="2.40588"
           id="rect852-0-8-2-6-4-2-6-4"
           style="opacity:1;fill:#a9dfbf;fill-opacity:0.988235;stroke:none;stroke-width:0.990746;stroke-linecap:round;stroke-linejoin:round;stroke-miterlimit:4;stroke-dasharray:none;stroke-opacity:1;paint-order:markers stroke fill" />
      </g>
      <path
         style="fill:#196f3d;fill-opacity:1;stroke-width:0.32174"
         d="m 180.34099,37.675025 c 1.24836,0 2.25219,1.010265 2.25219,2.252181 0,0.900874 -0.52443,1.669833 -1.28696,2.030181 v 1.508963 h -2.25218 v -0.965222 h -0.32174 c -0.35713,0 -0.64348,-0.286348 -0.64348,-0.643481 v -0.96522 h -0.48261 c -0.13513,0 -0.21235,-0.160869 -0.13513,-0.260609 l 0.61774,-0.814003 c 0.0611,-1.193656 1.03921,-2.14279 2.25217,-2.14279 m 0,-0.64348 c -1.47677,0 -2.69939,1.100351 -2.87635,2.541748 l -0.50192,0.675654 h -0.01 l -0.006,0.0096 c -0.17695,0.244518 -0.19947,0.566259 -0.0612,0.833304 0.11577,0.222 0.32174,0.376435 0.55983,0.424696 v 0.341045 c 0,0.595219 0.41182,1.100351 0.96521,1.245135 v 1.007047 h 3.53915 v -1.769572 c 0.80435,-0.537306 1.28696,-1.428527 1.28696,-2.413052 0,-1.599049 -1.29982,-2.895662 -2.89566,-2.895662 m 1.39314,2.670445 -0.63061,0.164086 0.46331,0.469741 c 0.1126,0.109394 0.1126,0.296002 0,0.408611 -0.11261,0.112604 -0.29923,0.112604 -0.40861,0 l -0.46653,-0.463306 -0.16731,0.63061 c -0.0385,0.157653 -0.19626,0.244524 -0.34426,0.205915 -0.16087,-0.04183 -0.25095,-0.19948 -0.21234,-0.357132 l 0.17052,-0.630611 -0.63062,0.170522 c -0.15764,0.0386 -0.3153,-0.05147 -0.35713,-0.212349 -0.0385,-0.144783 0.0514,-0.305653 0.20592,-0.344261 l 0.63061,-0.167306 -0.46331,-0.466522 c -0.11261,-0.109394 -0.11261,-0.292784 0,-0.408611 0.1126,-0.112604 0.29922,-0.112604 0.40861,0 l 0.46973,0.463307 0.1641,-0.630612 c 0.0385,-0.157652 0.19947,-0.24774 0.3507,-0.205914 0.15764,0.04183 0.24774,0.19948 0.20591,0.353915 l -0.17052,0.633828 0.63383,-0.170522 c 0.15443,-0.04183 0.31209,0.04826 0.35391,0.205914 0.0418,0.151217 -0.0482,0.312088 -0.20591,0.350697 z"
         id="path1997" />
    </g>
  </g>
</svg>
