<?xml version="1.0" encoding="UTF-8" standalone="no"?>
<svg
   xmlns:dc="http://purl.org/dc/elements/1.1/"
   xmlns:cc="http://creativecommons.org/ns#"
   xmlns:rdf="http://www.w3.org/1999/02/22-rdf-syntax-ns#"
   xmlns:svg="http://www.w3.org/2000/svg"
   xmlns="http://www.w3.org/2000/svg"
   xmlns:sodipodi="http://sodipodi.sourceforge.net/DTD/sodipodi-0.dtd"
   xmlns:inkscape="http://www.inkscape.org/namespaces/inkscape"
   sodipodi:docname="savoir-etre.svg"
   inkscape:version="1.0 (4035a4fb49, 2020-05-01)"
   id="svg1319"
   version="1.1"
   viewBox="0 0 16.502907 18.891472"
   height="18.891472mm"
   width="16.502907mm">
  <defs
     id="defs1313">
    <filter
       inkscape:collect="always"
       style="color-interpolation-filters:sRGB"
       id="filter1177-7-5-01-1-0"
       x="-0.13360204"
       width="1.267204"
       y="-0.11289582"
       height="1.2257916">
      <feGaussianBlur
         inkscape:collect="always"
         stdDeviation="1.7898929"
         id="feGaussianBlur1179-1-5-2-6-4" />
    </filter>
  </defs>
  <sodipodi:namedview
     inkscape:window-maximized="1"
     inkscape:window-y="-9"
     inkscape:window-x="-9"
     inkscape:window-height="1001"
     inkscape:window-width="1920"
     showgrid="false"
     inkscape:document-rotation="0"
     inkscape:current-layer="layer1"
     inkscape:document-units="mm"
     inkscape:cy="56.279403"
     inkscape:cx="64.205106"
     inkscape:zoom="1.979899"
     inkscape:pageshadow="2"
     inkscape:pageopacity="0.0"
     borderopacity="1.0"
     bordercolor="#666666"
     pagecolor="#ffffff"
     id="base" />
  <metadata
     id="metadata1316">
    <rdf:RDF>
      <cc:Work
         rdf:about="">
        <dc:format>image/svg+xml</dc:format>
        <dc:type
           rdf:resource="http://purl.org/dc/dcmitype/StillImage" />
        <dc:title></dc:title>
      </cc:Work>
    </rdf:RDF>
  </metadata>
  <g
     transform="translate(-2.806493,-2.61984)"
     id="layer1"
     inkscape:groupmode="layer"
     inkscape:label="Calque 1">
    <g
       transform="translate(-147.53897,-28.514113)"
       inkscape:export-ydpi="769.06665"
       inkscape:export-xdpi="769.06665"
       inkscape:export-filename="C:\Users\sarah.lachise\Documents\ENT-Mini-badges\badges\savoir-etre.png"
       id="g1508">
      <g
         transform="matrix(0.30833388,0,0,0.30833388,147.1816,14.760806)"
         id="g1189-2-6-8-7-1">
        <path
           sodipodi:nodetypes="zcczcczcczcczcczccz"
           d="m 21.73783,93.476309 c -0.410153,-0.73121 -0.353185,-2.29574 -0.353185,-2.29574 l 1e-6,-14.83378 c 0,0 -0.143185,-1.297988 0.211912,-1.931042 0.355096,-0.633054 1.61553,-1.398969 1.61553,-1.398969 l 11.501903,-7.026754 c 0,0 1.824312,-1.10456 2.803655,-1.10456 0.979344,0 2.210729,0.828634 2.210729,0.828634 l 11.116555,6.791336 c 0,0 1.717643,1.245154 2.169994,2.051589 0.452352,0.806433 0.494458,2.001678 0.494458,2.001678 v 14.127408 c 0,0 -0.104602,2.11052 -0.565098,2.93147 -0.460488,0.82095 -1.632244,1.48368 -1.632244,1.48368 L 39.843877,102.1074 c 0,0 -1.5673,0.82857 -2.538139,0.82857 -0.970838,0 -2.432688,-0.93676 -2.432688,-0.93676 L 23.477099,95.037179 c 0,0 -1.329114,-0.82966 -1.739269,-1.56087 z"
           style="opacity:0.762238;fill:#f1c40f;fill-opacity:1;stroke:none;stroke-width:2.86889;stroke-linecap:round;stroke-linejoin:round;stroke-miterlimit:4;stroke-dasharray:none;stroke-opacity:1;paint-order:markers stroke fill;filter:url(#filter1177-7-5-01-1-0)"
           id="path836-3-5-4-8-1-9"
           transform="matrix(1.3136131,0,0,1.3136131,-12.149562,-26.489447)" />
        <path
           transform="matrix(1.0042447,0,0,1.0626371,-67.400507,-7.1147412)"
           id="path836-6-3-9-2-7"
           style="opacity:1;fill:#ffffff;fill-opacity:1;stroke:#f1c40f;stroke-width:3.71514;stroke-linecap:round;stroke-linejoin:round;stroke-miterlimit:4;stroke-dasharray:none;stroke-opacity:1;paint-order:markers stroke fill"
           d="M 83.210636,97.798151 C 82.664276,96.87764 82.740163,94.90807 82.740163,94.90807 l 10e-7,-18.674061 c 0,0 -0.190735,-1.634021 0.282284,-2.430965 0.473019,-0.796944 2.152026,-1.761145 2.152026,-1.761145 L 100.496,63.196009 c 0,0 2.43014,-1.390517 3.73471,-1.390517 1.30457,0 2.94488,1.043156 2.94488,1.043156 l 14.80821,8.549526 c 0,0 2.28805,1.56751 2.89062,2.58272 0.60257,1.015209 0.65866,2.519888 0.65866,2.519888 v 17.78482 c 0,0 -0.13934,2.656913 -0.75276,3.690398 -0.61341,1.033484 -2.17429,1.867779 -2.17429,1.867779 l -15.27658,8.819941 c 0,0 -2.08778,1.04306 -3.38102,1.04306 -1.29324,0 -3.24055,-1.17926 -3.24055,-1.17926 L 85.527491,99.763112 c 0,0 -1.770494,-1.044451 -2.316855,-1.964961 z"
           sodipodi:nodetypes="zcczcczcczcczcczccz" />
        <rect
           style="opacity:1;fill:#f1c40f;fill-opacity:1;stroke:none;stroke-width:2.03634;stroke-linecap:round;stroke-linejoin:round;stroke-miterlimit:4;stroke-dasharray:none;stroke-opacity:1;paint-order:markers stroke fill"
           id="rect852-37-8-1-4-8"
           width="4.9449406"
           height="4.9449406"
           x="48.116322"
           y="56.867596"
           ry="0.68875718" />
        <rect
           ry="0.68875718"
           y="95.883179"
           x="-43.748703"
           height="4.9449406"
           width="4.9449406"
           id="rect852-3-5-8-9-9-3"
           style="opacity:1;fill:#f1c40f;fill-opacity:1;stroke:none;stroke-width:2.03634;stroke-linecap:round;stroke-linejoin:round;stroke-miterlimit:4;stroke-dasharray:none;stroke-opacity:1;paint-order:markers stroke fill"
           transform="rotate(-31.82884)" />
        <rect
           ry="0.68875718"
           y="99.905167"
           x="52.453087"
           height="4.9449406"
           width="4.9449406"
           id="rect852-8-1-9-7-5-7"
           style="opacity:1;fill:#fcf3cf;fill-opacity:0.988235;stroke:none;stroke-width:2.03634;stroke-linecap:round;stroke-linejoin:round;stroke-miterlimit:4;stroke-dasharray:none;stroke-opacity:1;paint-order:markers stroke fill" />
        <rect
           ry="0.4059625"
           y="106.56666"
           x="55.406414"
           height="2.914613"
           width="2.914613"
           id="rect852-0-82-1-8-3-1"
           style="opacity:1;fill:#f1c40f;fill-opacity:1;stroke:none;stroke-width:1.20024;stroke-linecap:round;stroke-linejoin:round;stroke-miterlimit:4;stroke-dasharray:none;stroke-opacity:1;paint-order:markers stroke fill" />
        <rect
           style="opacity:1;fill:#fcf3cf;fill-opacity:0.988235;stroke:none;stroke-width:0.990746;stroke-linecap:round;stroke-linejoin:round;stroke-miterlimit:4;stroke-dasharray:none;stroke-opacity:1;paint-order:markers stroke fill"
           id="rect852-0-8-6-9-19-4-9"
           width="2.4058802"
           height="2.4058802"
           x="-37.568775"
           y="94.791306"
           ry="0.33510357"
           transform="rotate(-33.228631)" />
        <rect
           transform="rotate(0.17408779)"
           ry="0.33510357"
           y="58.204025"
           x="43.951065"
           height="2.40588"
           width="2.40588"
           id="rect852-0-8-2-6-2-9-4-6"
           style="opacity:1;fill:#fcf3cf;fill-opacity:0.988235;stroke:none;stroke-width:0.990746;stroke-linecap:round;stroke-linejoin:round;stroke-miterlimit:4;stroke-dasharray:none;stroke-opacity:1;paint-order:markers stroke fill" />
      </g>
      <path
         style="fill:#f1c40f;fill-opacity:1;stroke-width:0.329011"
         d="m 158.97099,37.718598 c 1.27656,0 2.30308,1.033095 2.30308,2.303077 0,0.921232 -0.53629,1.707568 -1.31604,2.07606 v 1.543062 h -2.30309 v -0.987033 h -0.32901 c -0.3652,0 -0.65802,-0.29282 -0.65802,-0.658023 v -0.987033 h -0.49351 c -0.13819,0 -0.21716,-0.164505 -0.13819,-0.266498 l 0.6317,-0.832399 c 0.0625,-1.22063 1.06271,-2.191213 2.30308,-2.191213 m 0,-0.658023 c -1.51016,0 -2.76041,1.125218 -2.94136,2.599188 l -0.51326,0.690924 h -0.01 l -0.006,0.0098 c -0.18096,0.250045 -0.20399,0.579057 -0.0625,0.852136 0.11838,0.227017 0.32902,0.384942 0.57248,0.434294 v 0.348752 c 0,0.60867 0.42113,1.125217 0.98704,1.273273 v 1.029805 h 3.61911 v -1.809562 c 0.82253,-0.549448 1.31605,-1.460809 1.31605,-2.467583 0,-1.635185 -1.32921,-2.9611 -2.9611,-2.9611 m 1.31604,2.576158 c 0,0.506676 -0.44745,0.911361 -1.12521,1.52661 l -0.19083,0.174377 -0.19083,-0.174377 c -0.67776,-0.615249 -1.12522,-1.019934 -1.12522,-1.52661 0,-0.394814 0.31585,-0.720535 0.71066,-0.723826 h 0.0132 c 0.22702,0 0.44416,0.101993 0.59222,0.273081 0.14806,-0.171087 0.3652,-0.273081 0.59222,-0.273081 0.39482,-0.0034 0.72382,0.315851 0.72382,0.710664 z"
         id="path1986" />
    </g>
  </g>
</svg>
