<?xml version="1.0" encoding="UTF-8" standalone="no"?>
<svg
   xmlns:dc="http://purl.org/dc/elements/1.1/"
   xmlns:cc="http://creativecommons.org/ns#"
   xmlns:rdf="http://www.w3.org/1999/02/22-rdf-syntax-ns#"
   xmlns:svg="http://www.w3.org/2000/svg"
   xmlns="http://www.w3.org/2000/svg"
   xmlns:sodipodi="http://sodipodi.sourceforge.net/DTD/sodipodi-0.dtd"
   xmlns:inkscape="http://www.inkscape.org/namespaces/inkscape"
   sodipodi:docname="sport.svg"
   inkscape:version="1.0 (4035a4fb49, 2020-05-01)"
   id="svg1319"
   version="1.1"
   viewBox="0 0 16.502907 18.891472"
   height="18.891472mm"
   width="16.502907mm">
  <defs
     id="defs1313">
    <filter
       inkscape:collect="always"
       style="color-interpolation-filters:sRGB"
       id="filter1177-7-5-0"
       x="-0.13360204"
       width="1.267204"
       y="-0.11289582"
       height="1.2257916">
      <feGaussianBlur
         inkscape:collect="always"
         stdDeviation="1.7898929"
         id="feGaussianBlur1179-1-5-9" />
    </filter>
  </defs>
  <sodipodi:namedview
     inkscape:window-maximized="1"
     inkscape:window-y="-9"
     inkscape:window-x="-9"
     inkscape:window-height="1001"
     inkscape:window-width="1920"
     showgrid="false"
     inkscape:document-rotation="0"
     inkscape:current-layer="layer1"
     inkscape:document-units="mm"
     inkscape:cy="58.199368"
     inkscape:cx="65.237573"
     inkscape:zoom="1.979899"
     inkscape:pageshadow="2"
     inkscape:pageopacity="0.0"
     borderopacity="1.0"
     bordercolor="#666666"
     pagecolor="#ffffff"
     id="base" />
  <metadata
     id="metadata1316">
    <rdf:RDF>
      <cc:Work
         rdf:about="">
        <dc:format>image/svg+xml</dc:format>
        <dc:type
           rdf:resource="http://purl.org/dc/dcmitype/StillImage" />
        <dc:title></dc:title>
      </cc:Work>
    </rdf:RDF>
  </metadata>
  <g
     transform="translate(-2.533319,-2.1118496)"
     id="layer1"
     inkscape:groupmode="layer"
     inkscape:label="Calque 1">
    <g
       transform="translate(-42.979558,-2.7785514)"
       inkscape:export-ydpi="769.06665"
       inkscape:export-xdpi="769.06665"
       inkscape:export-filename="C:\Users\sarah.lachise\Documents\ENT-Mini-badges\badges\sport.png"
       id="g1340">
      <g
         transform="matrix(0.30833388,0,0,0.30833388,42.349014,-11.482746)"
         id="g1189-2-6-4">
        <path
           sodipodi:nodetypes="zcczcczcczcczcczccz"
           d="m 21.73783,93.476309 c -0.410153,-0.73121 -0.353185,-2.29574 -0.353185,-2.29574 l 1e-6,-14.83378 c 0,0 -0.143185,-1.297988 0.211912,-1.931042 0.355096,-0.633054 1.61553,-1.398969 1.61553,-1.398969 l 11.501903,-7.026754 c 0,0 1.824312,-1.10456 2.803655,-1.10456 0.979344,0 2.210729,0.828634 2.210729,0.828634 l 11.116555,6.791336 c 0,0 1.717643,1.245154 2.169994,2.051589 0.452352,0.806433 0.494458,2.001678 0.494458,2.001678 v 14.127408 c 0,0 -0.104602,2.11052 -0.565098,2.93147 -0.460488,0.82095 -1.632244,1.48368 -1.632244,1.48368 L 39.843877,102.1074 c 0,0 -1.5673,0.82857 -2.538139,0.82857 -0.970838,0 -2.432688,-0.93676 -2.432688,-0.93676 L 23.477099,95.037179 c 0,0 -1.329114,-0.82966 -1.739269,-1.56087 z"
           style="opacity:0.762238;fill:#884ea0;fill-opacity:1;stroke:none;stroke-width:2.86889;stroke-linecap:round;stroke-linejoin:round;stroke-miterlimit:4;stroke-dasharray:none;stroke-opacity:1;paint-order:markers stroke fill;filter:url(#filter1177-7-5-0)"
           id="path836-3-5-4-3"
           transform="matrix(1.3136131,0,0,1.3136131,-12.149562,-26.489447)" />
        <path
           transform="matrix(1.0042447,0,0,1.0626371,-67.400507,-7.1147412)"
           id="path836-6-3-8"
           style="opacity:1;fill:#ffffff;fill-opacity:1;stroke:#884ea0;stroke-width:3.71514;stroke-linecap:round;stroke-linejoin:round;stroke-miterlimit:4;stroke-dasharray:none;stroke-opacity:1;paint-order:markers stroke fill"
           d="M 83.210636,97.798151 C 82.664276,96.87764 82.740163,94.90807 82.740163,94.90807 l 10e-7,-18.674061 c 0,0 -0.190735,-1.634021 0.282284,-2.430965 0.473019,-0.796944 2.152026,-1.761145 2.152026,-1.761145 L 100.496,63.196009 c 0,0 2.43014,-1.390517 3.73471,-1.390517 1.30457,0 2.94488,1.043156 2.94488,1.043156 l 14.80821,8.549526 c 0,0 2.28805,1.56751 2.89062,2.58272 0.60257,1.015209 0.65866,2.519888 0.65866,2.519888 v 17.78482 c 0,0 -0.13934,2.656913 -0.75276,3.690398 -0.61341,1.033484 -2.17429,1.867779 -2.17429,1.867779 l -15.27658,8.819941 c 0,0 -2.08778,1.04306 -3.38102,1.04306 -1.29324,0 -3.24055,-1.17926 -3.24055,-1.17926 L 85.527491,99.763112 c 0,0 -1.770494,-1.044451 -2.316855,-1.964961 z"
           sodipodi:nodetypes="zcczcczcczcczcczccz" />
        <rect
           style="opacity:1;fill:#884ea0;fill-opacity:1;stroke:none;stroke-width:2.03634;stroke-linecap:round;stroke-linejoin:round;stroke-miterlimit:4;stroke-dasharray:none;stroke-opacity:1;paint-order:markers stroke fill"
           id="rect852-37-8-9"
           width="4.9449406"
           height="4.9449406"
           x="48.116322"
           y="56.867596"
           ry="0.68875718" />
        <rect
           ry="0.68875718"
           y="95.883179"
           x="-43.748703"
           height="4.9449406"
           width="4.9449406"
           id="rect852-3-5-8-8"
           style="opacity:1;fill:#884ea0;fill-opacity:1;stroke:none;stroke-width:2.03634;stroke-linecap:round;stroke-linejoin:round;stroke-miterlimit:4;stroke-dasharray:none;stroke-opacity:1;paint-order:markers stroke fill"
           transform="rotate(-31.82884)" />
        <rect
           ry="0.68875718"
           y="99.905167"
           x="52.453087"
           height="4.9449406"
           width="4.9449406"
           id="rect852-8-1-9-4"
           style="opacity:1;fill:#f5eef8;fill-opacity:0.988235;stroke:none;stroke-width:2.03634;stroke-linecap:round;stroke-linejoin:round;stroke-miterlimit:4;stroke-dasharray:none;stroke-opacity:1;paint-order:markers stroke fill" />
        <rect
           ry="0.4059625"
           y="106.56666"
           x="55.406414"
           height="2.914613"
           width="2.914613"
           id="rect852-0-82-1-2"
           style="opacity:1;fill:#884ea0;fill-opacity:1;stroke:none;stroke-width:1.20024;stroke-linecap:round;stroke-linejoin:round;stroke-miterlimit:4;stroke-dasharray:none;stroke-opacity:1;paint-order:markers stroke fill" />
        <rect
           style="opacity:1;fill:#f5eef8;fill-opacity:0.988235;stroke:none;stroke-width:0.990746;stroke-linecap:round;stroke-linejoin:round;stroke-miterlimit:4;stroke-dasharray:none;stroke-opacity:1;paint-order:markers stroke fill"
           id="rect852-0-8-6-9-1"
           width="2.4058802"
           height="2.4058802"
           x="-37.568775"
           y="94.791306"
           ry="0.33510357"
           transform="rotate(-33.228631)" />
        <rect
           transform="rotate(0.17408779)"
           ry="0.33510357"
           y="58.204025"
           x="43.951065"
           height="2.40588"
           width="2.40588"
           id="rect852-0-8-2-6-2-5"
           style="opacity:1;fill:#f5eef8;fill-opacity:0.988235;stroke:none;stroke-width:0.990746;stroke-linecap:round;stroke-linejoin:round;stroke-miterlimit:4;stroke-dasharray:none;stroke-opacity:1;paint-order:markers stroke fill" />
      </g>
      <path
         style="fill:#884ea0;fill-opacity:1;stroke-width:0.311807"
         d="m 50.754823,14.937462 c 0.187085,-0.0686 0.380405,-0.102893 0.586198,-0.102893 0.41782,0 0.782635,0.130959 1.094442,0.392877 l -0.979074,0.979074 c -0.330515,-0.374169 -0.56437,-0.801344 -0.701566,-1.269054 m 4.122089,-1.506029 c 0.614259,0.458357 1.278408,0.570608 1.989328,0.336752 0.0093,0.06548 0.01871,0.183966 0.01871,0.349224 0,0.321161 -0.07796,0.679739 -0.224501,1.075734 -0.146549,0.392877 -0.327397,0.71092 -0.539426,0.951011 l -1.973733,-1.967502 0.729628,-0.745219 m -2.11717,2.13276 c 0.330515,0.477065 0.399112,0.997783 0.202675,1.565272 -0.442766,-0.127842 -0.838761,-0.327398 -1.169277,-0.601788 l 0.966602,-0.963484 m 1.06638,-1.06638 1.967502,1.973739 c -0.676621,0.592433 -1.471729,0.841879 -2.375969,0.745218 0.06548,-0.205792 0.09978,-0.430293 0.09978,-0.673503 0,-0.19332 -0.04365,-0.42094 -0.130959,-0.679739 -0.0873,-0.2588 -0.190203,-0.470829 -0.305571,-0.636086 l 0.745219,-0.729629 m -1.053908,0.399114 c -0.28998,-0.2588 -0.626732,-0.42094 -1.007137,-0.495774 -0.380404,-0.07171 -0.745218,-0.04988 -1.09756,0.0686 -0.0093,-0.0686 -0.01871,-0.187084 -0.01871,-0.352341 0,-0.321162 0.07794,-0.67974 0.224501,-1.075735 0.146549,-0.392877 0.327397,-0.71092 0.539426,-0.951011 l 2.076634,2.085988 -0.717156,0.720275 M 54.876917,12.786 c -0.417821,-0.514482 -0.514482,-1.075735 -0.289981,-1.68064 0.193321,0.04989 0.414704,0.143431 0.66415,0.286862 0.246326,0.140314 0.449002,0.280626 0.604905,0.414703 L 54.876917,12.786 m 1.902023,0.514481 c -0.187085,0.06548 -0.380405,0.09978 -0.586198,0.09978 -0.33987,0 -0.667266,-0.09978 -0.979073,-0.30557 l 0.963483,-0.951012 c 0.27439,0.342988 0.473947,0.72651 0.601788,1.156803 m -2.952812,0.539426 -2.085989,-2.076634 c 0.676621,-0.592433 1.471729,-0.841879 2.379087,-0.745219 -0.0686,0.205793 -0.102893,0.430294 -0.102893,0.673503 0,0.224501 0.04988,0.477065 0.152785,0.76081 0.102894,0.280626 0.221383,0.505127 0.377287,0.670385 z"
         id="path1832" />
    </g>
  </g>
</svg>
